HIERARCHY
ROOT SpineBase
{
  OFFSET 0.000000 0.000000 0.000000
  CHANNELS 6 Xposition Yposition Zposition Zrotation Xrotation Yrotation
  JOINT SpineMid
  {
    OFFSET -0.000000 32.291174 0.000000
    CHANNELS 3 Zrotation Xrotation Yrotation
    JOINT SpineShoulder
    {
      OFFSET 0.293836 24.004238 -0.734313
      CHANNELS 3 Zrotation Xrotation Yrotation
      JOINT Neck
      {
        OFFSET 0.202122 7.961420 -0.557070
        CHANNELS 3 Zrotation Xrotation Yrotation
        JOINT Head
        {
          OFFSET 7.342078 9.359816 3.757068
          CHANNELS 3 Zrotation Xrotation Yrotation
          End Site
          {
            OFFSET 0 0 0
          }
        }
      }
      JOINT ShoulderLeft
      {
        OFFSET -3.636125 -1.444953 -14.850116
        CHANNELS 3 Zrotation Xrotation Yrotation
        JOINT ElbowLeft
        {
          OFFSET -4.008495 -23.670741 -9.454241
          CHANNELS 3 Zrotation Xrotation Yrotation
          JOINT WristLeft
          {
            OFFSET 2.900702 -22.816675 -1.519923
            CHANNELS 3 Zrotation Xrotation Yrotation
            JOINT HandLeft
            {
              OFFSET 0.739479 -6.850056 -0.107407
              CHANNELS 3 Zrotation Xrotation Yrotation
              JOINT HandTipLeft
              {
                OFFSET 0.493527 -6.527894 -0.021909
                CHANNELS 3 Zrotation Xrotation Yrotation
                End Site
                {
                  OFFSET 0 0 0
                }
              }
              JOINT ThumbLeft
              {
                OFFSET 3.073875 1.142257 -0.330219
                CHANNELS 3 Zrotation Xrotation Yrotation
                End Site
                {
                  OFFSET 0 0 0
                }
              }
            }
          }
        }
      }
      JOINT ShoulderRight
      {
        OFFSET 5.102416 -6.968914 16.930217
        CHANNELS 3 Zrotation Xrotation Yrotation
        JOINT ElbowRight
        {
          OFFSET 4.563330 -19.983912 6.590312
          CHANNELS 3 Zrotation Xrotation Yrotation
          JOINT WristRight
          {
            OFFSET -8.004674 -14.378682 -25.817511
            CHANNELS 3 Zrotation Xrotation Yrotation
            JOINT HandRight
            {
              OFFSET -6.520535 -16.364842 -22.947173
              CHANNELS 3 Zrotation Xrotation Yrotation
              JOINT HandTipRight
              {
                OFFSET -0.829152 -2.128427 -1.249963
                CHANNELS 3 Zrotation Xrotation Yrotation
                End Site
                {
                  OFFSET 0 0 0
                }
              }
              JOINT ThumbRight
              {
                OFFSET 3.428908 1.750404 -1.695505
                CHANNELS 3 Zrotation Xrotation Yrotation
                End Site
                {
                  OFFSET 0 0 0
                }
              }
            }
          }
        }
      }
    }
  }
  JOINT HipLeft
  {
    OFFSET -0.590051 2.503172 -9.425421
    CHANNELS 3 Zrotation Xrotation Yrotation
    JOINT KneeLeft
    {
      OFFSET -8.704123 -35.275959 -7.074871
      CHANNELS 3 Zrotation Xrotation Yrotation
      JOINT AnkleLeft
      {
        OFFSET -8.146331 -28.334909 0.076708
        CHANNELS 3 Zrotation Xrotation Yrotation
        JOINT FootLeft
        {
          OFFSET 2.509208 -7.335861 2.506882
          CHANNELS 3 Zrotation Xrotation Yrotation
          End Site
          {
            OFFSET 0 0 0
          }
        }
      }
    }
  }
  JOINT HipRight
  {
    OFFSET 2.801399 -0.081090 2.661185
    CHANNELS 3 Zrotation Xrotation Yrotation
    JOINT KneeRight
    {
      OFFSET -2.702068 -35.829155 -3.165671
      CHANNELS 3 Zrotation Xrotation Yrotation
      JOINT AnkleRight
      {
        OFFSET -13.363287 -32.720634 0.356881
        CHANNELS 3 Zrotation Xrotation Yrotation
        JOINT FootRight
        {
          OFFSET 1.120616 -6.887235 -3.438845
          CHANNELS 3 Zrotation Xrotation Yrotation
          End Site
          {
            OFFSET 0 0 0
          }
        }
      }
    }
  }
}
MOTION
Frames: 12
Frame Time: 0.033333
-102.897419 75.518114 322.328429 0.000000 0.000000 -74.326109 -0.000000 -0.000000 74.326109 -0.000000 0.000000 0.000000 -0.000000 0.000000 0.000000 0.000000 0.000000 0.000000 -0.000000 0.000000 0.000000 -0.000000 0.000000 0.000000 -0.000000 0.000000 0.000000 -0.000000 0.000000 0.000000 0.000000 0.000000 0.000000 0.000000 0.000000 0.000000 -0.000000 0.000000 0.000000 -0.000000 0.000000 0.000000 -0.000000 0.000000 0.000000 -0.000000 0.000000 0.000000 0.000000 0.000000 0.000000 0.000000 0.000000 0.000000 -0.000000 -0.000000 74.326109 -0.000000 0.000000 0.000000 -0.000000 0.000000 0.000000 0.000000 0.000000 0.000000 -0.000000 -0.000000 74.326109 -0.000000 0.000000 0.000000 -0.000000 0.000000 0.000000 0.000000 0.000000 0.000000
-102.769893 75.701445 322.510726 -0.064363 -0.074139 -74.816650 -0.054693 0.081534 74.816647 -0.000000 0.000000 0.000000 0.922781 0.268808 -0.586589 0.000000 0.000000 0.000000 -0.000000 0.000000 0.000000 -0.000000 0.000000 0.000000 0.833299 0.285968 0.015712 0.049592 -2.332289 -0.157309 0.000000 0.000000 0.000000 0.000000 0.000000 0.000000 -0.360238 1.419052 0.210730 0.355126 -1.420339 -0.201867 -0.000000 0.000000 0.000000 7.286160 3.305346 -5.824014 0.000000 0.000000 0.000000 0.000000 0.000000 0.000000 -0.054693 0.081534 74.816647 -0.000000 0.000000 0.000000 0.679949 0.906332 0.537356 0.000000 0.000000 0.000000 -0.054693 0.081534 74.816647 -0.000000 0.000000 0.000000 12.866917 2.707749 -6.125708 0.000000 0.000000 0.000000
-102.653836 75.879219 322.673731 -0.124799 -0.135477 -75.240620 -0.099213 0.155196 75.240606 -0.000000 0.000000 0.000000 1.772088 0.482306 -1.108718 0.000000 0.000000 0.000000 -0.000000 0.000000 0.000000 -0.000000 0.000000 0.000000 1.511756 0.450597 0.018965 0.257331 -4.136322 -0.244454 0.000000 0.000000 0.000000 0.000000 0.000000 0.000000 -0.771557 3.185232 0.499888 0.744908 -3.191563 -0.457683 -0.000000 0.000000 0.000000 12.796052 5.264620 -10.333993 0.000000 0.000000 0.000000 0.000000 0.000000 0.000000 -0.099213 0.155196 75.240606 -0.000000 0.000000 0.000000 1.155829 1.671317 0.951282 0.000000 0.000000 0.000000 -0.099213 0.155196 75.240606 -0.000000 0.000000 0.000000 23.778193 3.825244 -11.596630 0.000000 0.000000 0.000000
-102.549246 76.051436 322.817446 -0.181249 -0.183889 -75.599723 -0.133036 0.221287 75.599689 -0.000000 0.000000 0.000000 2.550074 0.644054 -1.567060 0.000000 0.000000 0.000000 -0.000000 0.000000 0.000000 -0.000000 0.000000 0.000000 2.037060 0.490505 0.012263 0.614037 -5.357846 -0.270984 0.000000 0.000000 0.000000 0.000000 0.000000 0.000000 -1.241701 5.302361 0.875167 1.165706 -5.319538 -0.763513 -0.081519 -0.726649 0.406827 16.998893 7.022562 -14.311433 0.000000 0.000000 0.000000 0.000000 0.000000 0.000000 -0.133036 0.221287 75.599689 -0.000000 0.000000 0.000000 1.435752 2.295752 1.250408 0.000000 0.000000 0.000000 -0.133036 0.221287 75.599689 -0.134163 0.742370 -0.303662 31.671407 3.456156 -14.915161 0.000000 0.000000 0.000000
-102.456124 76.218096 322.941870 -0.233657 -0.219259 -75.895579 -0.155710 0.280044 75.895512 -0.000000 0.000000 0.000000 3.258830 0.757070 -1.962265 0.000000 0.000000 0.000000 -0.000000 0.000000 0.000000 -0.000000 0.000000 0.000000 2.407267 0.399122 -0.003043 1.111785 -5.950176 -0.249816 0.000000 0.000000 0.000000 0.000000 0.000000 0.000000 -1.780204 7.770739 1.345823 1.612722 -7.807003 -1.114857 0.048036 -1.399354 0.499460 19.821503 8.346453 -17.112298 0.000000 0.000000 0.000000 0.000000 0.000000 0.000000 -0.155710 0.280044 75.895512 -0.000000 0.000000 0.000000 1.525675 2.781105 1.441133 0.000000 0.000000 0.000000 -0.155710 0.280044 75.895512 -0.183557 1.019422 -0.416484 36.390719 3.091577 -16.995331 0.000000 0.000000 0.000000
-102.374469 76.379199 323.047002 -0.281971 -0.241483 -76.129717 -0.166846 0.331638 76.129605 -0.000000 0.000000 0.000000 3.900329 0.823840 -2.294891 0.000000 0.000000 0.000000 -0.000000 0.000000 0.000000 -0.000000 0.000000 0.000000 2.616227 0.165983 -0.026834 1.744802 -5.873693 -0.196548 0.000000 0.000000 0.000000 0.000000 0.000000 0.000000 -2.398490 10.584466 1.922728 2.079922 -10.650913 -1.506621 0.267603 -2.324080 0.573171 21.630589 9.673787 -19.260788 0.000000 0.000000 0.000000 0.000000 0.000000 0.000000 -0.166846 0.331638 76.129605 -0.000000 0.000000 0.000000 1.429382 3.129109 1.527663 0.000000 0.000000 0.000000 -0.166846 0.331638 76.129605 -0.234938 1.310088 -0.534562 38.344289 2.702974 -17.655971 0.000000 0.000000 0.000000
-102.330742 76.597058 323.120902 -0.347409 -0.253212 -76.359042 -0.164137 0.397326 76.358843 -0.000000 0.000000 0.000000 4.431375 0.915194 -2.603211 0.000000 0.000000 0.000000 -0.000000 0.000000 0.000000 -0.000000 0.000000 0.000000 2.556744 -0.465376 -0.079762 3.219605 -4.991465 -0.102742 0.000000 0.000000 0.000000 0.000000 0.000000 0.000000 -3.451704 15.189551 2.960649 2.414206 -14.415140 -2.040761 1.171065 -5.004998 0.400860 23.115415 12.841857 -22.170483 0.000000 0.000000 0.000000 0.000000 0.000000 0.000000 -0.164137 0.397326 76.358843 -0.000000 0.000000 0.000000 1.012866 3.350578 1.473081 0.000000 0.000000 0.000000 -0.164137 0.397326 76.358843 -0.309931 1.753520 -0.714162 38.237516 4.164036 -17.329361 0.000000 0.000000 0.000000
-102.269256 76.784629 323.191437 -0.380561 -0.261035 -76.488959 -0.164898 0.431015 76.488713 -0.000000 0.000000 0.000000 4.955667 0.888411 -2.811970 0.000000 0.000000 0.000000 -0.000000 0.000000 0.000000 -0.000000 0.000000 0.000000 2.300408 -0.893998 -0.114402 4.257025 -3.356999 -0.051852 0.000000 0.000000 0.000000 0.000000 0.000000 0.000000 -4.532749 19.366442 4.003073 2.847691 -18.176254 -2.552288 2.035633 -7.499568 0.245121 22.429846 10.169869 -20.469110 0.000000 0.000000 0.000000 0.000000 0.000000 0.000000 -0.164898 0.431015 76.488713 -0.000000 0.000000 0.000000 0.607835 3.011414 1.230797 0.000000 0.000000 0.000000 -0.164898 0.431015 76.488713 -0.397059 2.197170 -0.893068 34.564245 5.404140 -15.172135 0.000000 0.000000 0.000000
-102.232450 76.915579 323.227328 -0.417051 -0.211487 -76.559248 -0.108754 0.454786 76.558910 -0.000000 0.000000 0.000000 5.363201 0.746799 -2.872623 0.000000 0.000000 0.000000 -0.000000 0.000000 0.000000 0.903556 -0.327130 -0.099120 0.727338 -1.888025 -0.138013 5.186970 0.053466 -0.025910 0.000000 0.000000 0.000000 0.000000 0.000000 0.000000 -5.562188 22.935141 4.987936 3.198626 -21.374296 -2.974703 2.694700 -10.063203 0.450899 21.585812 11.624722 -20.759055 0.000000 0.000000 0.000000 0.000000 0.000000 0.000000 -0.108754 0.454786 76.558910 -0.000000 0.000000 0.000000 -0.630969 3.792933 1.117823 0.000000 0.000000 0.000000 -0.108754 0.454786 76.558910 -0.449468 2.502103 -1.015710 28.507867 2.652367 -11.745866 0.000000 0.000000 0.000000
-102.178786 76.972386 323.248861 -0.438132 -0.159691 -76.500814 -0.053004 0.463304 76.500418 -0.000000 0.000000 0.000000 5.824805 0.593669 -2.946862 0.000000 0.000000 0.000000 -0.000000 0.000000 0.000000 1.055015 -0.340993 -0.110385 0.539950 -2.441135 -0.179196 4.188291 2.193799 0.047788 0.000000 0.000000 0.000000 0.000000 0.000000 0.000000 -6.182173 25.172077 5.666059 3.262147 -23.223616 -3.277505 3.211728 -12.099115 0.649221 18.631881 19.491986 -21.886992 0.000000 0.000000 0.000000 0.000000 0.000000 0.000000 -0.053004 0.463304 76.500418 -0.000000 0.000000 0.000000 -0.630208 3.421562 0.986037 0.000000 0.000000 0.000000 -0.053004 0.463304 76.500418 -0.453356 2.603772 -1.056744 19.750052 -4.377962 -7.582378 0.000000 0.000000 0.000000
-102.144980 76.942697 323.237829 -0.473054 -0.088109 -76.345315 0.026057 0.480483 76.344842 -0.000000 0.000000 0.000000 6.231189 0.423171 -2.980886 0.000000 0.000000 0.000000 -0.000000 0.000000 0.000000 1.170644 -0.359406 -0.119874 0.140342 -3.111332 -0.236268 2.579262 4.420218 0.224106 0.000000 0.000000 0.000000 0.000000 0.000000 0.000000 -6.296959 25.658851 5.821675 3.144734 -23.341832 -3.358051 3.471114 -13.236372 0.811673 5.784587 27.735012 -13.694180 0.000000 0.000000 0.000000 0.000000 0.000000 0.000000 0.026057 0.480483 76.344842 -0.000000 0.000000 0.000000 -0.598891 2.614198 0.710135 0.000000 0.000000 0.000000 0.026057 0.480483 76.344842 -0.445639 2.577093 -1.046079 17.766364 -6.647382 -6.823875 0.000000 0.000000 0.000000
-102.092197 76.945239 323.198585 -0.495530 0.000528 -76.148440 0.119149 0.480993 76.147942 -0.000000 0.000000 0.000000 6.625016 0.295921 -3.045980 0.000000 0.000000 0.000000 -0.000000 0.000000 0.000000 1.192911 -0.331534 -0.118031 -0.252738 -2.837972 -0.211169 1.358466 4.206675 0.304465 0.000000 0.000000 0.000000 0.000000 0.000000 0.000000 -5.691424 23.913159 5.295467 2.753987 -21.281439 -3.166733 3.085614 -12.639803 1.066510 -3.395416 31.032312 -7.064854 0.000000 0.000000 0.000000 0.000000 0.000000 0.000000 0.119149 0.480993 76.147942 -0.000000 0.000000 0.000000 -0.178716 1.357063 0.407108 0.000000 0.000000 0.000000 0.119149 0.480993 76.147942 -0.395338 2.441293 -0.991885 9.763415 -16.950248 -4.597514 0.000000 0.000000 0.000000
